<?xml version="1.0" encoding="UTF-8" standalone="no"?>
<svg
   xmlns:dc="http://purl.org/dc/elements/1.1/"
   xmlns:cc="http://creativecommons.org/ns#"
   xmlns:rdf="http://www.w3.org/1999/02/22-rdf-syntax-ns#"
   xmlns:svg="http://www.w3.org/2000/svg"
   xmlns="http://www.w3.org/2000/svg"
   viewBox="0 0 405.02499 607.79999"
   height="607.79999"
   width="405.02499"
   xml:space="preserve"
   version="1.1"
   id="svg2"><metadata
     id="metadata8"><rdf:RDF><cc:Work
         rdf:about=""><dc:format>image/svg+xml</dc:format><dc:type
           rdf:resource="http://purl.org/dc/dcmitype/StillImage" /></cc:Work></rdf:RDF></metadata><defs
     id="defs6" /><g
     transform="matrix(1.25,0,0,-1.25,0,607.8)"
     id="g10"><g
       transform="scale(0.1,0.1)"
       id="g12"><path
         id="path14"
         style="fill:#141415;fill-opacity:1;fill-rule:evenodd;stroke:none"
         d="m 2188.71,4855.72 c -621.54,81.8 -279.92,-603.23 -15.63,-1318.89 C 2434.55,2828.78 1819.92,2257.52 1439.62,2343.01 433.066,2569.29 1734.45,4418.05 821.992,4388.16 -1124.2,4324.38 745.684,-882.199 2700.46,2039.01 c 737.44,1102.05 853.7,2637.02 -511.75,2816.71" /><path
         id="path16"
         style="fill:#141415;fill-opacity:1;fill-rule:nonzero;stroke:none"
         d="M 710.484,76.6016 C 696.965,51.832 675.738,32.8398 646.832,19.7188 617.91,6.58203 587.301,0 555.016,0 c -33.055,0 -62.348,5.62891 -87.871,16.8906 -25.543,11.2696 -47.137,26.8477 -64.774,46.7578 -17.656,19.8907 -31.18,42.9926 -40.558,69.2926 -9.403,26.278 -14.083,54.809 -14.083,85.61 l 0,345.859 130.68,0 0,-322.191 c 0,-17.289 2.059,-33.43 6.195,-48.449 4.122,-15.032 10.704,-28.168 19.719,-39.438 9.012,-11.25 20.453,-20.273 34.36,-27.031 13.886,-6.75 30.593,-10.141 50.132,-10.141 38.305,0 67.032,11.442 86.18,34.36 19.156,22.902 28.731,52.39 28.731,88.441 l 0,324.449 130.683,0 0,-448.379 c 0,-22.531 0.563,-42.2419 1.692,-59.1404 1.121,-16.9023 2.425,-30.6093 3.937,-41.1211 l -125.047,0 c -1.515,6.0118 -2.64,14.8203 -3.379,26.4805 -0.758,11.6289 -1.129,23.0898 -1.129,34.3516" /><path
         id="path18"
         style="fill:#141415;fill-opacity:1;fill-rule:nonzero;stroke:none"
         d="m 1279.4,434.852 c -15.03,2.257 -29.29,3.378 -42.81,3.378 -51.08,0 -88.43,-13.898 -112.09,-41.679 -23.66,-27.789 -35.49,-67.602 -35.49,-119.41 l 0,-261.3715 -130.682,0 0,548.6405 127.302,0 0,-87.871 c 12.76,30.031 33.41,53.32 61.96,69.852 28.53,16.507 60.83,24.781 96.89,24.781 8.25,0 15.38,-0.391 21.4,-1.121 6.01,-0.762 10.51,-1.52 13.52,-2.262 l 0,-132.937" /><path
         id="path20"
         style="fill:#141415;fill-opacity:1;fill-rule:nonzero;stroke:none"
         d="m 1808.88,291.781 c 0,54.809 -13.71,97.071 -41.12,126.739 -27.43,29.66 -62.91,44.5 -106.46,44.5 -42.07,0 -77.17,-14.84 -105.34,-44.5 -28.16,-29.668 -42.24,-71.93 -42.24,-126.739 0,-27.031 3.75,-51.25 11.26,-72.66 7.5,-21.41 17.83,-39.633 30.98,-54.641 13.13,-15.039 28.73,-26.468 46.76,-34.359 18.02,-7.883 37.54,-11.832 58.58,-11.832 42.81,0 78.1,15.383 105.89,46.191 27.78,30.782 41.69,73.219 41.69,127.301 z m -422.47,-276.0115 0,815.6405 128.43,0 0,-334.59 c 12.76,21.77 33.97,40.922 63.65,57.461 29.67,16.5 65.91,24.778 108.72,24.778 41.29,0 77.73,-7.321 109.28,-21.969 31.54,-14.649 58.01,-34.918 79.42,-60.828 21.41,-25.922 37.54,-56.16 48.44,-90.692 10.88,-34.558 16.33,-72.101 16.33,-112.66 0,-41.32 -6.01,-79.82 -18.02,-115.48 -12.02,-35.668 -29.11,-66.461 -51.26,-92.3714 -22.16,-25.918 -49.2,-46.1875 -81.11,-60.8398 C 1758.36,9.58203 1722.5,2.25 1682.7,2.25 c -39.06,0 -73.05,7.8906 -101.95,23.6602 -28.92,15.7695 -51.26,36.789 -67.03,63.082 l 0,-73.2227 -127.31,0" /><path
         id="path22"
         style="fill:#141415;fill-opacity:1;fill-rule:nonzero;stroke:none"
         d="m 2346.23,15.7695 0,548.6405 129.55,0 0,-548.6405 -129.55,0 z m -20.29,741.2895 c 0,24.019 8.26,44.312 24.79,60.832 16.51,16.507 36.41,24.781 59.71,24.781 24.03,0 44.3,-8.274 60.83,-24.781 16.52,-16.52 24.78,-36.813 24.78,-60.832 0,-24.047 -8.26,-44.129 -24.78,-60.27 -16.53,-16.168 -36.8,-24.219 -60.83,-24.219 -23.3,0 -43.2,8.051 -59.71,24.219 -16.53,16.141 -24.79,36.223 -24.79,60.27" /><path
         id="path24"
         style="fill:#141415;fill-opacity:1;fill-rule:nonzero;stroke:none"
         d="m 2810.37,564.41 113.79,0 0,-116.031 -113.79,0 0,-254.609 c 0,-24.04 5.63,-41.508 16.89,-52.379 11.27,-10.903 28.91,-16.34 52.95,-16.34 9.02,0 18.03,0.558 27.04,1.687 9.02,1.121 15.02,2.063 18.03,2.813 l 0,-108.1408 c -3.77,-1.5196 -12.02,-3.9493 -24.79,-7.3282 -12.78,-3.3828 -31.17,-5.07028 -55.2,-5.07028 -51.07,0 -91.25,14.25778 -120.55,42.82028 -29.27,28.5196 -43.92,68.719 -43.92,120.527 l 0,276.02 -101.4,0 0,116.031 28.16,0 c 29.29,0 50.7,8.262 64.21,24.789 13.53,16.512 20.29,36.789 20.29,60.832 l 0,82.239 118.29,0 0,-167.86" /><path
         id="path26"
         style="fill:#141415;fill-opacity:1;fill-rule:nonzero;stroke:none"
         d="m 2146.52,193.691 -8.23,0 c -45.67,0 -83.05,37.368 -83.05,83.047 l 0,8.223 c 0,45.68 37.38,83.059 83.05,83.059 l 8.23,0 c 45.68,0 83.05,-37.379 83.05,-83.059 l 0,-8.223 c 0,-45.679 -37.37,-83.047 -83.05,-83.047" /></g></g></svg>