<?xml version="1.0" encoding="iso-8859-1"?>
<!-- Generator: Adobe Illustrator 19.0.0, SVG Export Plug-In . SVG Version: 6.00 Build 0)  -->
<svg version="1.1" id="Capa_1" xmlns="http://www.w3.org/2000/svg" xmlns:xlink="http://www.w3.org/1999/xlink" x="0px" y="0px"
	 viewBox="0 0 463 463" style="enable-background:new 0 0 463 463;" xml:space="preserve">
<g>
	<path d="M462.997,119.436c-0.001-0.168-0.013-0.336-0.025-0.505c-0.006-0.082-0.009-0.165-0.017-0.246
		c-0.017-0.153-0.044-0.304-0.07-0.457c-0.016-0.096-0.029-0.193-0.049-0.288c-0.026-0.12-0.06-0.238-0.092-0.358
		c-0.033-0.124-0.063-0.249-0.102-0.371c-0.028-0.087-0.063-0.172-0.095-0.259c-0.054-0.151-0.109-0.301-0.172-0.447
		c-0.03-0.068-0.066-0.135-0.098-0.203c-0.075-0.159-0.152-0.317-0.238-0.47c-0.01-0.017-0.017-0.036-0.027-0.053L402.619,11.841
		C398.446,4.537,390.627,0,382.215,0H80.785c-8.412,0-16.23,4.537-20.404,11.841L0.988,115.78c-0.01,0.017-0.017,0.036-0.027,0.053
		c-0.086,0.153-0.163,0.311-0.238,0.47c-0.032,0.068-0.068,0.135-0.098,0.203c-0.064,0.146-0.118,0.297-0.172,0.447
		c-0.031,0.087-0.067,0.172-0.095,0.259c-0.039,0.122-0.069,0.247-0.102,0.371c-0.032,0.119-0.066,0.238-0.092,0.358
		c-0.02,0.095-0.032,0.192-0.049,0.288c-0.026,0.152-0.053,0.304-0.07,0.457c-0.009,0.081-0.011,0.164-0.017,0.246
		c-0.013,0.168-0.024,0.336-0.025,0.505c0,0.022-0.003,0.043-0.003,0.064v14.624c0,20.911,15.657,38.785,35.645,40.691
		c1.259,0.12,2.517,0.18,3.771,0.18c2.903,0,5.78-0.326,8.583-0.945V288H23.5c-4.142,0-7.5,3.357-7.5,7.5s3.358,7.5,7.5,7.5H32
		v112.5c0,8.547,6.953,15.5,15.5,15.5H48v24.5c0,4.143,3.358,7.5,7.5,7.5h352c4.142,0,7.5-3.357,7.5-7.5V431h0.5
		c8.547,0,15.5-6.953,15.5-15.5V303h8.5c4.142,0,7.5-3.357,7.5-7.5s-3.358-7.5-7.5-7.5H415V174.057
		c4.014,0.886,8.183,1.156,12.355,0.758c19.988-1.906,35.645-19.78,35.645-40.691V119.5
		C463,119.479,462.997,119.458,462.997,119.436z M389.595,19.282L442.577,112H396.54l-39.592-97h25.267
		C385.258,15,388.085,16.641,389.595,19.282z M153.371,15l-23.755,97H82.662l39.592-97H153.371z M200.506,15l-7.918,97h-47.529
		l23.755-97H200.506z M247.445,15l7.919,97h-47.726l7.918-97H247.445z M294.187,15l23.755,97h-47.529l-7.918-97H294.187z
		 M340.747,15l39.592,97h-46.953L309.63,15H340.747z M79,127h49v8.49c0,0.003,0,0.006,0,0.01c0,13.51-10.991,24.5-24.5,24.5
		S79,149.01,79,135.5V127z M143,135.5V127h49v8.5c0,13.51-10.991,24.5-24.5,24.5c-13.507,0-24.496-10.987-24.5-24.494
		C143,135.505,143,135.502,143,135.5z M207,127h49v8.5c0,13.51-10.991,24.5-24.5,24.5S207,149.01,207,135.5V127z M271,127h49v8.5
		c0,13.51-10.991,24.5-24.5,24.5S271,149.01,271,135.5V127z M335,127h49v8.5c0,13.51-10.991,24.5-24.5,24.5S335,149.01,335,135.5
		V127z M73.405,19.283c1.51-2.643,4.338-4.283,7.38-4.283h25.267l-39.592,97H20.424L73.405,19.283z M37.069,159.884
		C24.694,158.703,15,147.389,15,134.124V127h49v8.5c0,6.888-2.925,13.497-8.026,18.135C50.806,158.334,44.09,160.551,37.069,159.884
		z M400,448H63v-17h337V448z M416,415.5c0,0.275-0.224,0.5-0.5,0.5h-368c-0.276,0-0.5-0.225-0.5-0.5V303h369V415.5z M400,167.5V288
		H63V167.5c0-0.084-0.01-0.166-0.013-0.25c1.063-0.785,2.092-1.621,3.078-2.517c2.037-1.852,3.858-3.901,5.446-6.102
		C78.695,168.539,90.354,175,103.5,175c13.153,0,24.817-6.468,32-16.384c7.183,9.916,18.847,16.384,32,16.384
		c13.153,0,24.817-6.468,32-16.384c7.183,9.916,18.847,16.384,32,16.384c13.153,0,24.817-6.468,32-16.384
		c7.183,9.916,18.847,16.384,32,16.384s24.817-6.468,32-16.384c7.183,9.916,18.847,16.384,32,16.384
		c13.146,0,24.805-6.461,31.989-16.369c1.588,2.201,3.409,4.25,5.446,6.102c0.985,0.896,2.014,1.734,3.077,2.519
		C400.01,167.335,400,167.417,400,167.5z M448,134.124c0,13.265-9.694,24.579-22.068,25.76c-7.022,0.67-13.737-1.551-18.906-6.25
		c-5.1-4.637-8.025-11.246-8.025-18.134V127h49V134.124z"/>
	<path d="M295.5,320h-128c-4.142,0-7.5,3.357-7.5,7.5v16c0,4.143,3.358,7.5,7.5,7.5c4.687,0,8.5,3.813,8.5,8.5s-3.813,8.5-8.5,8.5
		c-4.142,0-7.5,3.357-7.5,7.5v16c0,4.143,3.358,7.5,7.5,7.5h128c4.142,0,7.5-3.357,7.5-7.5v-16c0-4.143-3.358-7.5-7.5-7.5
		c-4.687,0-8.5-3.813-8.5-8.5s3.813-8.5,8.5-8.5c4.142,0,7.5-3.357,7.5-7.5v-16C303,323.358,299.642,320,295.5,320z M288,337.227
		c-9.292,3.138-16,11.937-16,22.273s6.708,19.136,16,22.273V384H175v-2.227c9.292-3.138,16-11.937,16-22.273
		s-6.708-19.136-16-22.273V335h113V337.227z"/>
	<path d="M215.5,367h32c4.142,0,7.5-3.357,7.5-7.5s-3.358-7.5-7.5-7.5h-32c-4.142,0-7.5,3.357-7.5,7.5S211.358,367,215.5,367z"/>
</g>
<g>
</g>
<g>
</g>
<g>
</g>
<g>
</g>
<g>
</g>
<g>
</g>
<g>
</g>
<g>
</g>
<g>
</g>
<g>
</g>
<g>
</g>
<g>
</g>
<g>
</g>
<g>
</g>
<g>
</g>
</svg>
